<svg width="1280" height="420" viewBox="0 0 1280 420" fill="none" xmlns="http://www.w3.org/2000/svg">
  <rect width="1280" height="420" rx="28" fill="#101614"/>
  <rect x="28" y="28" width="1224" height="364" rx="22" fill="#17201D" stroke="#429F91" stroke-width="2"/>
  <path d="M0 340H1280V420H0V340Z" fill="#0B100F"/>
  <path d="M96 112H332C348.569 112 362 125.431 362 142V296C362 312.569 348.569 326 332 326H96C79.4315 326 66 312.569 66 296V142C66 125.431 79.4315 112 96 112Z" fill="#20322D" stroke="#D8DF9D" stroke-width="4"/>
  <path d="M92 164H336V296C336 304.837 328.837 312 320 312H108C99.1634 312 92 304.837 92 296V164Z" fill="#263B35"/>
  <path d="M92 164H336V196H92V164Z" fill="#429F91"/>
  <path d="M184 136H244C252.837 136 260 143.163 260 152V164H168V152C168 143.163 175.163 136 184 136Z" fill="#D8DF9D"/>
  <rect x="190" y="198" width="48" height="58" rx="8" fill="#D8DF9D"/>
  <path d="M214 206V248" stroke="#101614" stroke-width="8" stroke-linecap="round"/>
  <path d="M440 122H1110" stroke="#429F91" stroke-width="2"/>
  <text x="440" y="190" fill="#D8DF9D" font-family="Segoe UI, Arial, sans-serif" font-size="78" font-weight="800">pnCases 1.3</text>
  <text x="444" y="242" fill="#F4F7EE" font-family="Segoe UI, Arial, sans-serif" font-size="30" font-weight="600">кейсы для Paper 1.21.x</text>
  <text x="444" y="292" fill="#AFCAC3" font-family="Segoe UI, Arial, sans-serif" font-size="24">анимации • голограммы • LuckPerms • обновления через GitHub</text>
  <rect x="444" y="322" width="178" height="44" rx="8" fill="#429F91"/>
  <text x="474" y="352" fill="#101614" font-family="Segoe UI, Arial, sans-serif" font-size="20" font-weight="800">СКАЧАТЬ</text>
  <rect x="642" y="322" width="190" height="44" rx="8" fill="#24342F" stroke="#D8DF9D"/>
  <text x="672" y="352" fill="#D8DF9D" font-family="Segoe UI, Arial, sans-serif" font-size="20" font-weight="700">CHANGELOG</text>
  <path d="M1030 94L1052 139L1102 146L1066 181L1075 230L1030 207L985 230L994 181L958 146L1008 139L1030 94Z" fill="#D8DF9D" opacity="0.95"/>
  <path d="M1135 148L1150 178L1184 183L1159 207L1165 241L1135 225L1105 241L1111 207L1086 183L1120 178L1135 148Z" fill="#429F91" opacity="0.95"/>
</svg>
