<svg width="1280" height="440" viewBox="0 0 1280 440" fill="none" xmlns="http://www.w3.org/2000/svg">
  <defs>
    <linearGradient id="bg" x1="80" y1="40" x2="1180" y2="420" gradientUnits="userSpaceOnUse">
      <stop stop-color="#0C1513"/>
      <stop offset="0.48" stop-color="#17251F"/>
      <stop offset="1" stop-color="#0A1010"/>
    </linearGradient>
    <linearGradient id="mint" x1="410" y1="92" x2="970" y2="298" gradientUnits="userSpaceOnUse">
      <stop stop-color="#429F91"/>
      <stop offset="0.55" stop-color="#8DBF97"/>
      <stop offset="1" stop-color="#D8DF9D"/>
    </linearGradient>
    <linearGradient id="gold" x1="82" y1="96" x2="350" y2="356" gradientUnits="userSpaceOnUse">
      <stop stop-color="#D8DF9D"/>
      <stop offset="1" stop-color="#429F91"/>
    </linearGradient>
    <filter id="soft" x="-40%" y="-40%" width="180%" height="180%" color-interpolation-filters="sRGB">
      <feGaussianBlur stdDeviation="22"/>
    </filter>
    <filter id="shadow" x="-20%" y="-20%" width="140%" height="140%" color-interpolation-filters="sRGB">
      <feDropShadow dx="0" dy="18" stdDeviation="18" flood-color="#020404" flood-opacity="0.55"/>
    </filter>
  </defs>

  <rect width="1280" height="440" rx="34" fill="url(#bg)"/>
  <path d="M0 348C154 302 256 374 404 326C545 280 621 128 784 138C936 147 1011 287 1280 231V440H0V348Z" fill="#09100F" opacity="0.8"/>
  <path d="M88 54H1192C1211.88 54 1228 70.1178 1228 90V350C1228 369.882 1211.88 386 1192 386H88C68.1178 386 52 369.882 52 350V90C52 70.1178 68.1177 54 88 54Z" stroke="#429F91" stroke-width="2" opacity="0.9"/>

  <circle cx="1068" cy="112" r="104" fill="#429F91" opacity="0.13" filter="url(#soft)"/>
  <circle cx="1010" cy="310" r="92" fill="#D8DF9D" opacity="0.11" filter="url(#soft)"/>

  <g opacity="0.22">
    <path d="M470 72H1114" stroke="#D8DF9D" stroke-width="1"/>
    <path d="M470 368H1114" stroke="#429F91" stroke-width="1"/>
    <path d="M1132 92L1168 128L1132 164L1096 128L1132 92Z" stroke="#D8DF9D" stroke-width="2"/>
    <path d="M1012 286L1038 312L1012 338L986 312L1012 286Z" stroke="#429F91" stroke-width="2"/>
  </g>

  <g filter="url(#shadow)">
    <path d="M107 108H344C364.435 108 381 124.565 381 145V312C381 332.435 364.435 349 344 349H107C86.5655 349 70 332.435 70 312V145C70 124.565 86.5655 108 107 108Z" fill="#17241F" stroke="url(#gold)" stroke-width="5"/>
    <path d="M101 169H350V312C350 321.389 342.389 329 333 329H118C108.611 329 101 321.389 101 312V169Z" fill="#24372F"/>
    <path d="M101 169H350V206H101V169Z" fill="#429F91"/>
    <path d="M188 132H263C273.493 132 282 140.507 282 151V169H169V151C169 140.507 177.507 132 188 132Z" fill="#D8DF9D"/>
    <rect x="198" y="218" width="56" height="68" rx="10" fill="#D8DF9D"/>
    <path d="M226 230V275" stroke="#101614" stroke-width="9" stroke-linecap="round"/>
    <path d="M118 235C154 230 174 214 202 218" stroke="#D8DF9D" stroke-width="5" stroke-linecap="round" opacity="0.5"/>
    <path d="M252 304C291 304 309 280 335 282" stroke="#429F91" stroke-width="5" stroke-linecap="round" opacity="0.65"/>
  </g>

  <text x="444" y="142" fill="#AFCAC3" font-family="Segoe UI, Arial, sans-serif" font-size="22" font-weight="700" letter-spacing="4">PAPER 1.21.X PLUGIN</text>
  <text x="440" y="224" fill="url(#mint)" font-family="Segoe UI, Arial, sans-serif" font-size="82" font-weight="900">pnCases 1.3</text>
  <text x="444" y="275" fill="#F4F7EE" font-family="Segoe UI, Arial, sans-serif" font-size="31" font-weight="650">кейсы, анимации, голограммы и донат-награды</text>
  <text x="444" y="323" fill="#AFCAC3" font-family="Segoe UI, Arial, sans-serif" font-size="23">выбор анимации • история открытий • LuckPerms • обновления через GitHub</text>

  <g>
    <rect x="444" y="344" width="132" height="34" rx="8" fill="#22352F" stroke="#429F91"/>
    <text x="468" y="367" fill="#D8DF9D" font-family="Segoe UI, Arial, sans-serif" font-size="17" font-weight="750">v1.3</text>
    <rect x="594" y="344" width="178" height="34" rx="8" fill="#22352F" stroke="#429F91"/>
    <text x="618" y="367" fill="#D8DF9D" font-family="Segoe UI, Arial, sans-serif" font-size="17" font-weight="750">No metrics</text>
    <rect x="790" y="344" width="210" height="34" rx="8" fill="#22352F" stroke="#429F91"/>
    <text x="814" y="367" fill="#D8DF9D" font-family="Segoe UI, Arial, sans-serif" font-size="17" font-weight="750">GitHub updates</text>
  </g>

  <path d="M1065 96L1084 134L1126 140L1095 170L1103 212L1065 192L1027 212L1035 170L1004 140L1046 134L1065 96Z" fill="#D8DF9D" opacity="0.95"/>
  <path d="M1144 190L1158 218L1189 222L1167 244L1172 275L1144 260L1116 275L1121 244L1099 222L1130 218L1144 190Z" fill="#429F91" opacity="0.95"/>
  <path d="M966 102L976 122L998 125L982 141L986 163L966 152L946 163L950 141L934 125L956 122L966 102Z" fill="#F4F7EE" opacity="0.8"/>
</svg>
